<svg version="1.1" xmlns="http://www.w3.org/2000/svg" xmlns:xlink="http://www.w3.org/1999/xlink" width="48" height="48"><defs><linearGradient x1="11.75721" y1="11.67152" x2="63.01082" y2="63.09651" gradientUnits="userSpaceOnUse" id="color-1"><stop offset="0" stop-color="#000000" stop-opacity="0.3"></stop><stop offset="1" stop-color="#000000" stop-opacity="0"></stop></linearGradient><filter id="dropshadow-base"><feColorMatrix type="matrix" values="0 0 0 0 0  0 0 0 0 0  0 0 0 0 0  0 0 0 .8 0"></feColorMatrix> <feOffset dx="0" dy="1"></feOffset> <feGaussianBlur stdDeviation="1"></feGaussianBlur> <feComposite in="SourceGraphic"></feComposite></filter><filter id="dropshadow-banner" x="-10%" y="-10%" width="120%" height="130%"><feColorMatrix type="matrix" values="0 0 0 0 0  0 0 0 0 0  0 0 0 0 0  0 0 0 .4 0"></feColorMatrix> <feOffset dx="0" dy="1"></feOffset> <feGaussianBlur stdDeviation="0.5"></feGaussianBlur> <feComposite in="SourceGraphic"></feComposite></filter></defs><g fill="none" fill-rule="nonzero" stroke="none" stroke-width="none" stroke-linecap="butt" stroke-linejoin="miter" stroke-miterlimit="10" stroke-dasharray="" stroke-dashoffset="0" font-family="none" font-weight="none" font-size="none" text-anchor="none" style="mix-blend-mode: normal"><path d="M2,24c0,-12.15026 9.84974,-22 22,-22c12.15026,0 22,9.84974 22,22c0,12.15026 -9.84974,22 -22,22c-12.15026,0 -22,-9.84974 -22,-22z" id="base 1 5" fill="#2da87c" stroke-width="1"></path><path d="M13.33041,18.26425l-1.5732,-1.87314l5.62556,-4.71959l3.16813,3.16813c1.08278,-0.35574 2.24008,-0.54818 3.44297,-0.54818c3.04615,0 5.80293,1.23408 7.79785,3.22901l13.17188,13.17188c-2.37489,7.44561 -8.60654,13.16928 -16.34628,14.8223l-12.40917,-12.40917c-1.9944,-1.9944 -3.22666,-4.75089 -3.22666,-7.79551c0,-2.11483 0.59454,-4.09063 1.62607,-5.76858zM29.04403,13.55079l1.5732,-1.87314l5.62556,4.71959l9.6621,9.6621c-0.11731,1.26367 -0.34149,2.49634 -0.66343,3.68888z" fill="url(#color-1)" stroke-width="1"></path><path d="M18.95597,13.54466l-1.5732,-1.87315l-5.62556,4.71959l1.5732,1.87315zM36.24278,16.39723l-5.62556,-4.71959l-1.5732,1.87315l5.62556,4.71959zM23.99388,14.29147c-6.09078,0 -11.01238,4.93384 -11.01238,11.0185c0,6.08466 4.9216,11.0185 11.01238,11.0185c6.09078,0 11.02463,-4.93384 11.02463,-11.0185c0,-6.08466 -4.93384,-11.0185 -11.02463,-11.0185zM24,33.87993c-4.73184,0 -8.56995,-3.83811 -8.56995,-8.56995c0,-4.73184 3.83811,-8.56995 8.56995,-8.56995c4.73184,0 8.56995,3.83811 8.56995,8.56995c0,4.73184 -3.83199,8.56995 -8.56995,8.56995zM20.32717,22.86142h4.43801l-4.43801,5.14197v2.2037h7.34567v-2.44856h-4.43801l4.43801,-5.14197v-2.2037h-7.34567z" fill="none" stroke-width="0"></path><path d="M13.33042,18.26426l-1.5732,-1.87315l5.62556,-4.71959l1.5732,1.87315zM34.66958,18.27038l-5.62556,-4.71959l1.5732,-1.87315l5.62556,4.71959zM35.0185,25.30998c0,6.08466 -4.93384,11.0185 -11.02463,11.0185c-6.09078,0 -11.01238,-4.93384 -11.01238,-11.0185c0,-6.08466 4.9216,-11.0185 11.01238,-11.0185c6.09078,0 11.02463,4.93384 11.02463,11.0185zM32.56995,25.30998c0,-4.73184 -3.83811,-8.56995 -8.56995,-8.56995c-4.73184,0 -8.56995,3.83811 -8.56995,8.56995c0,4.73184 3.83811,8.56995 8.56995,8.56995c4.73796,0 8.56995,-3.83811 8.56995,-8.56995zM20.32717,20.41286h7.34567v2.2037l-4.43801,5.14197h4.43801v2.44856h-7.34567v-2.2037l4.43801,-5.14197h-4.43801z" fill="#ffffff" stroke-width="0"></path><path d="M2,24c0,-12.15026 9.84974,-22 22,-22c12.15026,0 22,9.84974 22,22c0,12.15026 -9.84974,22 -22,22c-12.15026,0 -22,-9.84974 -22,-22z" id="base 1 1 1" fill="none" stroke-width="1"></path><g fill="#000000" stroke-width="1" font-family="Roboto, sans-serif" font-weight="400" font-size="14" text-anchor="start"></g><rect x="2" y="2" width="44" height="22" fill="none" stroke-width="1"></rect><path d="M2,24v-22h44v22z" fill="none" stroke-width="1"></path><path d="M2,24v-22h44v22z" fill="none" stroke-width="1"></path><path d="M2,24v-22h44v22z" fill="none" stroke-width="1"></path><path d="M2,24v-22h44v22z" fill="none" stroke-width="1"></path></g></svg>